<svg width="20" height="20" viewBox="0 0 20 20" fill="none" xmlns="http://www.w3.org/2000/svg">
<path d="M2.09382 9.11506C7.14672 6.91359 10.5161 5.46225 12.202 4.76103C17.0155 2.75892 18.0157 2.41113 18.6676 2.39953C18.811 2.39712 19.1316 2.43266 19.3393 2.60117C19.5146 2.74345 19.5629 2.93566 19.586 3.07056C19.6091 3.20546 19.6378 3.51278 19.615 3.7529C19.3541 6.49364 18.2254 13.1447 17.6512 16.2144C17.4083 17.5133 16.9298 17.9488 16.4667 17.9914C15.4601 18.084 14.6958 17.3262 13.7209 16.6871C12.1954 15.6871 11.3336 15.0646 9.85278 14.0888C8.14148 12.9611 9.25084 12.3413 10.2261 11.3283C10.4813 11.0632 14.9162 7.02937 15.0021 6.66343C15.0128 6.61766 15.0228 6.44707 14.9214 6.35699C14.8201 6.26691 14.6705 6.29771 14.5626 6.32221C14.4096 6.35694 11.9725 7.96773 7.25144 11.1546C6.5597 11.6296 5.93313 11.861 5.37176 11.8489C4.75288 11.8355 3.56242 11.499 2.67743 11.2113C1.59196 10.8585 0.729242 10.6719 0.804365 10.0727C0.843494 9.76055 1.27331 9.44134 2.09382 9.11506Z" fill="#582D7F"/>
</svg>
