<svg width="20" height="20" viewBox="0 0 20 20" fill="none" xmlns="http://www.w3.org/2000/svg">
<g clip-path="url(#clip0_291_20)">
<path fill-rule="evenodd" clip-rule="evenodd" d="M17.1763 3.88264C15.4116 2.11793 13.0586 1.17676 10.588 1.17676C5.41156 1.17676 1.17627 5.41205 1.17627 10.5885C1.17627 12.2356 1.64686 13.8826 2.47039 15.2944L1.17627 20.0003L6.11746 18.7062C7.52923 19.4121 9.05862 19.8826 10.588 19.8826C15.7645 19.8826 19.9998 15.6473 19.9998 10.4709C19.9998 8.00029 18.941 5.64735 17.1763 3.88264ZM10.588 18.3532C9.17627 18.3532 7.76451 18.0003 6.58804 17.2944L6.35273 17.1768L3.41156 18.0003L4.2351 15.1768L3.99979 14.8238C3.17626 13.5297 2.82332 12.1179 2.82332 10.7062C2.82332 6.47088 6.35274 2.94146 10.588 2.94146C12.7057 2.94146 14.588 3.76499 16.1175 5.17676C17.6469 6.70617 18.3527 8.58852 18.3527 10.7062C18.3527 14.8238 14.941 18.3532 10.588 18.3532ZM14.8233 12.4709C14.588 12.3532 13.4116 11.765 13.1763 11.765C12.941 11.6473 12.8233 11.6473 12.7057 11.8826C12.588 12.1179 12.1175 12.5885 11.9998 12.8238C11.8822 12.9415 11.7645 12.9415 11.5292 12.9415C11.2939 12.8238 10.588 12.5885 9.64687 11.765C8.94099 11.1768 8.47039 10.3532 8.35275 10.1179C8.2351 9.88264 8.35275 9.76499 8.4704 9.64735C8.58805 9.5297 8.70568 9.41205 8.82333 9.2944C8.94098 9.17676 8.94099 9.05911 9.05864 8.94146C9.17628 8.82382 9.05864 8.70617 9.05864 8.58852C9.05864 8.47088 8.58804 7.29441 8.35275 6.82382C8.2351 6.47088 7.99981 6.47088 7.88217 6.47088C7.76452 6.47088 7.64684 6.47088 7.41155 6.47088C7.2939 6.47088 7.05861 6.47088 6.82331 6.70617C6.58802 6.94146 5.99981 7.5297 5.99981 8.70617C5.99981 9.88264 6.82332 10.9415 6.94097 11.1768C7.05862 11.2944 8.58802 13.765 10.941 14.7062C12.941 15.5297 13.2939 15.2944 13.7645 15.2944C14.2351 15.2944 15.1763 14.7062 15.2939 14.2356C15.5292 13.6473 15.5292 13.1768 15.4116 13.1768C15.2939 12.5885 15.0586 12.5885 14.8233 12.4709Z" fill="#582D7F"/>
</g>
<defs>
<clipPath id="clip0_291_20">
<rect width="20" height="20" fill="white"/>
</clipPath>
</defs>
</svg>
