<svg width="20" height="20" viewBox="0 0 20 20" fill="none" xmlns="http://www.w3.org/2000/svg">
<path d="M9.76471 1.76471C12.3529 1.76471 12.7059 1.76471 13.7647 1.76471C14.7059 1.76471 15.1765 2 15.5294 2.11765C16 2.35294 16.3529 2.47059 16.7059 2.82353C17.0588 3.17647 17.2941 3.52941 17.4118 4C17.5294 4.35294 17.6471 4.82353 17.7647 5.76471C17.7647 6.82353 17.7647 7.05882 17.7647 9.76471C17.7647 12.4706 17.7647 12.7059 17.7647 13.7647C17.7647 14.7059 17.5294 15.1765 17.4118 15.5294C17.1765 16 17.0588 16.3529 16.7059 16.7059C16.3529 17.0588 16 17.2941 15.5294 17.4118C15.1765 17.5294 14.7059 17.6471 13.7647 17.7647C12.7059 17.7647 12.4706 17.7647 9.76471 17.7647C7.05882 17.7647 6.82353 17.7647 5.76471 17.7647C4.82353 17.7647 4.35294 17.5294 4 17.4118C3.52941 17.1765 3.17647 17.0588 2.82353 16.7059C2.47059 16.3529 2.23529 16 2.11765 15.5294C2 15.1765 1.88235 14.7059 1.76471 13.7647C1.76471 12.7059 1.76471 12.4706 1.76471 9.76471C1.76471 7.05882 1.76471 6.82353 1.76471 5.76471C1.76471 4.82353 2 4.35294 2.11765 4C2.35294 3.52941 2.47059 3.17647 2.82353 2.82353C3.17647 2.47059 3.52941 2.23529 4 2.11765C4.35294 2 4.82353 1.88235 5.76471 1.76471C6.82353 1.76471 7.17647 1.76471 9.76471 1.76471ZM9.76471 0C7.05882 0 6.82353 0 5.76471 0C4.70588 0 4 0.235295 3.41177 0.470589C2.82353 0.705883 2.23529 1.05882 1.64706 1.64706C1.05882 2.23529 0.82353 2.70588 0.470589 3.41177C0.235295 4 0.117647 4.70588 0 5.76471C0 6.82353 0 7.17647 0 9.76471C0 12.4706 0 12.7059 0 13.7647C0 14.8235 0.235295 15.5294 0.470589 16.1176C0.705883 16.7059 1.05882 17.2941 1.64706 17.8824C2.23529 18.4706 2.70588 18.7059 3.41177 19.0588C4 19.2941 4.70588 19.4118 5.76471 19.5294C6.82353 19.5294 7.17647 19.5294 9.76471 19.5294C12.3529 19.5294 12.7059 19.5294 13.7647 19.5294C14.8235 19.5294 15.5294 19.2941 16.1176 19.0588C16.7059 18.8235 17.2941 18.4706 17.8824 17.8824C18.4706 17.2941 18.7059 16.8235 19.0588 16.1176C19.2941 15.5294 19.4118 14.8235 19.5294 13.7647C19.5294 12.7059 19.5294 12.3529 19.5294 9.76471C19.5294 7.17647 19.5294 6.82353 19.5294 5.76471C19.5294 4.70588 19.2941 4 19.0588 3.41177C18.8235 2.82353 18.4706 2.23529 17.8824 1.64706C17.2941 1.05882 16.8235 0.82353 16.1176 0.470589C15.5294 0.235295 14.8235 0.117647 13.7647 0C12.7059 0 12.4706 0 9.76471 0Z" fill="#582D7F"/>
<path d="M9.76471 4.70588C6.94118 4.70588 4.70588 6.94118 4.70588 9.76471C4.70588 12.5882 6.94118 14.8235 9.76471 14.8235C12.5882 14.8235 14.8235 12.5882 14.8235 9.76471C14.8235 6.94118 12.5882 4.70588 9.76471 4.70588ZM9.76471 13.0588C8 13.0588 6.47059 11.6471 6.47059 9.76471C6.47059 8 7.88235 6.47059 9.76471 6.47059C11.5294 6.47059 13.0588 7.88235 13.0588 9.76471C13.0588 11.5294 11.5294 13.0588 9.76471 13.0588Z" fill="#582D7F"/>
<path d="M14.9412 5.76471C15.5909 5.76471 16.1176 5.23798 16.1176 4.58824C16.1176 3.93849 15.5909 3.41177 14.9412 3.41177C14.2914 3.41177 13.7647 3.93849 13.7647 4.58824C13.7647 5.23798 14.2914 5.76471 14.9412 5.76471Z" fill="#582D7F"/>
</svg>
